<?xml version="1.0" encoding="utf-8"?><svg xml:space="preserve" viewBox="0 0 100 100" y="0" x="0" xmlns="http://www.w3.org/2000/svg" id="圖層_1" version="1.1" width="200px" height="200px" xmlns:xlink="http://www.w3.org/1999/xlink" style="width:100%;height:100%;background-size:initial;background-repeat-y:initial;background-repeat-x:initial;background-position-y:initial;background-position-x:initial;background-origin:initial;background-image:initial;background-color:rgb(255, 255, 255);background-clip:initial;background-attachment:initial;animation-play-state:paused" ><g class="ldl-scale" style="transform-origin:50% 50%;transform:rotate(0deg) scale(0.8, 0.8);animation-play-state:paused" ><path stroke="#333" fill="#e0e0e0" stroke-miterlimit="10" stroke-width="3.5" d="M45.765 90h0c-10.98 0-19.881-8.901-19.881-19.881V41.006c0-7.451 6.04-13.491 13.491-13.491h12.781c7.451 0 13.491 6.04 13.491 13.491v29.112C65.647 81.099 56.745 90 45.765 90z" style="stroke:rgb(51, 51, 51);fill:rgb(224, 224, 224);animation-play-state:paused" ></path>
<path d="M25.884 53.628h39.763" stroke-miterlimit="10" stroke-width="3.5" stroke="#333" fill="none" style="stroke:rgb(51, 51, 51);animation-play-state:paused" ></path>
<path d="M45.765 27.515v26.113" stroke-miterlimit="10" stroke-width="3.5" stroke="#333" fill="none" style="stroke:rgb(51, 51, 51);animation-play-state:paused" ></path>
<path stroke-miterlimit="10" stroke-width="3.5" stroke="#333" fill="none" d="M45.701 27.955a36.663 36.663 0 0 1-1.019-6.76c-.069-1.227-.075-2.469.175-3.673.786-3.778 4.206-6.745 8.013-7.38s7.812.9 10.533 3.635c3.106 3.121 4.579 7.529 7.428 10.886.833.982 2.333 1.899 3.286 1.032" style="stroke:rgb(51, 51, 51);animation-play-state:paused" ></path>
<metadata xmlns:d="https://loading.io/stock/" style="animation-play-state:paused" ><d:name style="animation-play-state:paused" >mouse</d:name>


<d:tags style="animation-play-state:paused" >mouse,cursor,pointer,hid,controller,input device</d:tags>


<d:license style="animation-play-state:paused" >by</d:license>


<d:slug style="animation-play-state:paused" >8rjj72</d:slug></metadata></g><!-- generated by https://loading.io/ --></svg>