  <svg xmlns="http://www.w3.org/2000/svg" viewBox="0 0 200 200" width="200" height="200"
        preserveAspectRatio="xMidYMid meet" style="width: 100%; height: 100%; transform: translate3d(0px, 0px, 0px);">
        <defs>
            <clipPath id="__lottie_element_3">
                <rect width="200" height="200" x="0" y="0"></rect>
            </clipPath>
        </defs>
        <g clip-path="url(#__lottie_element_3)">
            <g transform="matrix(0.9396926164627075,0.3420201539993286,-0.3420201539993286,0.9396926164627075,53.207725524902344,7.512199401855469)"
                opacity="0.5" style="display: block;">
                <g opacity="1" transform="matrix(1,0,0,1,78,64.5)">
                    <path fill="rgb(81,146,217)" fill-opacity="1"
                        d=" M5.572999954223633,-59.5 C-21.70199966430664,-59.499000549316406 -49.02399826049805,-48.97100067138672 -62.729000091552734,-27.878999710083008 C-76.42400360107422,-6.788000106811523 -76.42400360107422,24.867000579833984 -62.729000091552734,47.98899841308594 C-49.000999450683594,71.0770034790039 -21.61400032043457,85.66500091552734 3.674999952316284,84.4260025024414 C28.964000701904297,83.18900299072266 52.084999084472656,66.15599822998047 65.70999908447266,43.104000091552734 C79.30000305175781,20.051000595092773 83.3949966430664,-9.02400016784668 71.80000305175781,-28.910999298095703 C60.2400016784668,-48.76499938964844 33.02399826049805,-59.430999755859375 5.704999923706055,-59.5 C5.659999847412109,-59.5 5.618000030517578,-59.5 5.572999954223633,-59.5z">
                    </path>
                </g>
            </g>
            <g transform="matrix(0.8660253882408142,0.5,-0.5,0.8660253882408142,65.83236694335938,-8.819892883300781)"
                opacity="0.25" style="display: block;">
                <g opacity="1" transform="matrix(1,0,0,1,66,88.5009994506836)">
                    <path fill="rgb(114,239,221)" fill-opacity="1"
                        d=" M11.979194641113281,-83.58161163330078 C-16.931806564331055,-83.51361083984375 -45.685546875,-76.93590545654297 -56.23554611206055,-59.28490447998047 C-66.7855453491211,-41.63490295410156 -59.17300033569336,-12.761452674865723 -44.76799774169922,12.361547470092773 C-30.362998962402344,37.45254898071289 -8.866678237915039,58.794097900390625 14.76932144165039,60.24809646606445 C38.40532302856445,61.70209503173828 64.38851928710938,43.328128814697266 78.89451599121094,18.137128829956055 C93.4005126953125,-7.020871639251709 96.01461029052734,-38.94374084472656 82.96161651611328,-58.04974365234375 C69.94361114501953,-77.0567398071289 41.15519332885742,-83.58261108398438 12.4241943359375,-83.58261108398438 C12.27619457244873,-83.58261108398438 12.12719440460205,-83.58161163330078 11.979194641113281,-83.58161163330078z">
                    </path>
                </g>
            </g>
            <g transform="matrix(0.9848077297210693,0.1736481785774231,-0.1736481785774231,0.9848077297210693,18.67102813720703,12.085289001464844)"
                opacity="0.25" style="display: block;">
                <g opacity="1" transform="matrix(1,0,0,1,97,72.5)">
                    <path fill="rgb(153,71,170)" fill-opacity="1"
                        d=" M-82.92411804199219,-21.62032127380371 C-96.88811492919922,5.472678184509277 -92.7750015258789,40.42399978637695 -76.30999755859375,60.05500030517578 C-59.803001403808594,79.72899627685547 -32.03334045410156,82.58309936523438 -1.145339012145996,84.29209899902344 C29.69866180419922,86.0010986328125 62.244930267333984,84.29438781738281 77.95893096923828,65.0783920288086 C93.67393493652344,45.90538787841797 92.62799835205078,10.454000473022461 75.70500183105469,-18.347999572753906 C58.82400131225586,-47.10900115966797 27.395999908447266,-68.50423431396484 -4.783999919891357,-68.92123413085938 C-5.164000034332275,-68.92623901367188 -5.541999816894531,-68.92923736572266 -5.923999786376953,-68.92923736572266 C-37.73699951171875,-68.92823791503906 -69.1261215209961,-48.39432144165039 -82.92411804199219,-21.62032127380371z">
                    </path>
                </g>
            </g>
            <g transform="matrix(1,0,0,1,149.8001708984375,21.644344329833984)" opacity="0.25" style="display: block;">
                <g opacity="1" transform="matrix(1,0,0,1,12,12)">
                    <path stroke-linecap="butt" stroke-linejoin="miter" fill-opacity="0" stroke-miterlimit="10"
                        stroke="rgb(0,181,203)" stroke-opacity="1" stroke-width="4"
                        d=" M0,8 C4.418000221252441,8 8,4.418000221252441 8,0 C8,-4.418000221252441 4.418000221252441,-8 0,-8 C-4.418000221252441,-8 -8,-4.418000221252441 -8,0 C-8,4.418000221252441 -4.418000221252441,8 0,8z">
                    </path>
                </g>
            </g>
            <g transform="matrix(1,0,0,1,5.926267623901367,102.24501037597656)" opacity="0.25" style="display: block;">
                <g opacity="1" transform="matrix(1,0,0,1,12,12)">
                    <path stroke-linecap="butt" stroke-linejoin="miter" fill-opacity="0" stroke-miterlimit="10"
                        stroke="rgb(255,255,255)" stroke-opacity="1" stroke-width="4"
                        d=" M0,8 C4.418000221252441,8 8,4.418000221252441 8,0 C8,-4.418000221252441 4.418000221252441,-8 0,-8 C-4.418000221252441,-8 -8,-4.418000221252441 -8,0 C-8,4.418000221252441 -4.418000221252441,8 0,8z">
                    </path>
                </g>
            </g>
            <g transform="matrix(1,0,0,1,141.04637145996094,150.4228515625)" opacity="0.25" style="display: block;">
                <g opacity="1" transform="matrix(1,0,0,1,16,16)">
                    <path stroke-linecap="butt" stroke-linejoin="miter" fill-opacity="0" stroke-miterlimit="10"
                        stroke="rgb(0,181,203)" stroke-opacity="1" stroke-width="4"
                        d=" M0,12 C6.626999855041504,12 12,6.626999855041504 12,0 C12,-6.626999855041504 6.626999855041504,-12 0,-12 C-6.626999855041504,-12 -12,-6.626999855041504 -12,0 C-12,6.626999855041504 -6.626999855041504,12 0,12z">
                    </path>
                </g>
            </g>
            <g transform="matrix(1,0,0,1,165.54339599609375,125.9229736328125)" opacity="0.25" style="display: block;">
                <g opacity="1" transform="matrix(1,0,0,1,10,10)">
                    <path stroke-linecap="butt" stroke-linejoin="miter" fill-opacity="0" stroke-miterlimit="10"
                        stroke="rgb(114,239,221)" stroke-opacity="1" stroke-width="4"
                        d=" M0,6 C3.312999963760376,6 6,3.312999963760376 6,0 C6,-3.312999963760376 3.312999963760376,-6 0,-6 C-3.312999963760376,-6 -6,-3.312999963760376 -6,0 C-6,3.312999963760376 -3.312999963760376,6 0,6z">
                    </path>
                </g>
            </g>
            <g transform="matrix(1,0,0,1,34.091224670410156,144.4357147216797)" opacity="1" style="display: block;">
                <g opacity="1" transform="matrix(1,0,0,1,26,26)">
                    <path stroke-linecap="butt" stroke-linejoin="miter" fill-opacity="0" stroke-miterlimit="10"
                        stroke="rgb(227,176,101)" stroke-opacity="1" stroke-width="4"
                        d=" M0,6 C3.312999963760376,6 6,3.312999963760376 6,0 C6,-3.312999963760376 3.312999963760376,-6 0,-6 C-3.312999963760376,-6 -6,-3.312999963760376 -6,0 C-6,3.312999963760376 -3.312999963760376,6 0,6z">
                    </path>
                </g>
            </g>
            <g transform="matrix(1,0,0,1,0.8522148132324219,-0.9768505096435547)" opacity="1" style="display: block;">
                <g opacity="1" transform="matrix(1,0,0,1,32,32)">
                    <path stroke-linecap="butt" stroke-linejoin="miter" fill-opacity="0" stroke-miterlimit="10"
                        stroke="rgb(153,71,170)" stroke-opacity="1" stroke-width="4"
                        d=" M0,12 C6.626999855041504,12 12,6.626999855041504 12,0 C12,-6.626999855041504 6.626999855041504,-12 0,-12 C-6.626999855041504,-12 -12,-6.626999855041504 -12,0 C-12,6.626999855041504 -6.626999855041504,12 0,12z">
                    </path>
                </g>
            </g>
        </g>
    </svg>
