<svg width="178" height="44" viewBox="0 0 178 44" fill="none" xmlns="http://www.w3.org/2000/svg">
<path d="M72.1116 18.2877C73.0052 18.2877 73.7296 19.0121 73.7296 19.9057V34.1431C73.7296 35.0367 73.0052 35.7611 72.1116 35.7611H69.4352C68.5417 35.7611 67.8173 35.0367 67.8173 34.1431V19.9057C67.8173 19.0121 68.5417 18.2877 69.4352 18.2877H72.1116Z" fill="white"/>
<path d="M78.6521 35.7611C77.7585 35.7611 77.0341 35.0367 77.0341 34.1431V32.7352C77.0341 32.3429 77.1767 31.9639 77.4352 31.6689L83.9551 24.2286L85.7983 22.3764L83.0508 22.4463H78.7217C77.8281 22.4463 77.1037 21.722 77.1037 20.8284V19.9057C77.1037 19.0121 77.8281 18.2877 78.7217 18.2877H90.7187C91.6123 18.2877 92.3367 19.0121 92.3367 19.9057V21.3164C92.3367 21.707 92.1954 22.0844 91.9389 22.3789L85.5201 29.7502L83.6073 31.6723L86.6678 31.6024H91.0317C91.9253 31.6024 92.6497 32.3268 92.6497 33.2204V34.1431C92.6497 35.0367 91.9253 35.7611 91.0317 35.7611H78.6521Z" fill="white"/>
<path d="M104.255 36.1105C101.357 36.1105 99.0616 35.3184 97.369 33.7341C95.6996 32.1499 94.8649 29.9133 94.8649 27.0244C94.8649 25.1139 95.2475 23.4831 96.0126 22.1318C96.801 20.7573 97.8675 19.7205 99.2123 19.0216C100.58 18.2993 102.168 17.9382 103.977 17.9382C105.809 17.9382 107.362 18.2993 108.637 19.0216C109.936 19.7205 110.921 20.699 111.593 21.9571C112.266 23.1919 112.602 24.613 112.602 26.2206C112.602 26.6632 112.579 27.0943 112.532 27.5136C112.499 28.0868 112.021 28.5271 111.447 28.5271H100.603C100.766 29.7386 101.16 30.6122 101.786 31.1481C102.412 31.6606 103.235 31.9169 104.255 31.9169C105.136 31.9169 105.832 31.7422 106.342 31.3927C106.454 31.3193 106.56 31.2397 106.66 31.1539C107.307 30.5977 108.154 30.1344 108.964 30.4036L110.731 30.991C111.574 31.2714 112.053 32.2016 111.552 32.9353C111.274 33.3414 110.94 33.7126 110.55 34.0487C109.762 34.7243 108.811 35.2368 107.698 35.5863C106.609 35.9358 105.461 36.1105 104.255 36.1105ZM103.977 22.0969C102.719 22.0969 101.804 22.5829 101.233 23.555C100.728 24.4135 101.541 25.3469 102.537 25.3469H105.183C106.152 25.3469 106.96 24.4658 106.526 23.5996C106.025 22.5978 105.175 22.0969 103.977 22.0969Z" fill="white"/>
<path d="M126.76 31.882C128.778 31.882 130.319 32.313 131.386 33.175C132.476 34.0137 133.021 35.2252 133.021 36.8095C133.021 38.9994 132.151 40.6186 130.412 41.667C128.696 42.7387 126.378 43.2746 123.456 43.2746C120.303 43.2746 118.031 42.8785 116.64 42.0864C115.249 41.2943 114.553 40.2226 114.553 38.8713C114.553 38.0792 114.808 37.4035 115.318 36.8444C115.852 36.2852 117.857 35.6912 117.857 35.6912C117.857 35.6912 115.318 33.8856 115.318 32.1615C115.318 31.3461 115.562 30.6355 116.049 30.0298C116.536 29.4007 118.066 28.6669 118.066 28.6669C118.066 28.6669 115.284 26.0459 115.284 23.8792C115.284 21.992 116.014 20.5359 117.475 19.5108C118.958 18.4624 121.034 17.9382 123.7 17.9382C125.045 17.9382 127.352 18.3576 127.352 18.3576C127.352 18.3576 127.676 16.7384 128.047 16.0161C128.441 15.2939 128.975 14.7115 129.647 14.2688C130.343 13.8029 131.189 13.5699 132.186 13.5699C132.246 13.5699 132.315 13.5786 132.392 13.5959C132.417 13.6015 132.438 13.6048 132.464 13.6048C132.621 13.6048 132.757 13.7218 132.776 13.8774L133.127 16.7512C133.176 17.1507 132.797 17.4839 132.395 17.4839C131.583 17.4839 130.934 17.647 130.447 17.9732C129.96 18.2993 129.473 19.2312 129.473 19.2312C129.473 19.2312 132.082 21.8057 132.082 23.8792C132.082 25.7663 131.34 27.2224 129.856 28.2475C128.395 29.2726 126.343 29.7852 123.7 29.7852C122.661 29.7852 121.709 29.7074 120.842 29.5518C120.572 29.5032 120.287 29.5015 120.039 29.6208C119.535 29.8634 119.283 30.221 119.283 30.6938C119.283 31.4859 119.932 31.882 121.231 31.882H126.76ZM123.7 21.328C122.935 21.328 122.309 21.5494 121.822 21.992C121.358 22.4347 121.126 23.0637 121.126 23.8792C121.126 24.6713 121.358 25.2887 121.822 25.7313C122.309 26.174 122.935 26.3953 123.7 26.3953C124.442 26.3953 125.056 26.174 125.543 25.7313C126.03 25.2887 126.274 24.6713 126.274 23.8792C126.274 23.0637 126.03 22.4347 125.543 21.992C125.056 21.5494 124.442 21.328 123.7 21.328ZM123.491 39.4305C125.161 39.4305 126.401 39.2557 127.213 38.9063C128.047 38.5801 128.465 38.1607 128.465 37.6482C128.465 37.2987 128.325 37.0191 128.047 36.8095C127.792 36.6231 127.34 36.5299 126.691 36.5299H120.466C120.025 36.5299 119.666 36.6464 119.387 36.8793C119.132 37.1123 119.005 37.4035 119.005 37.753C119.005 38.2889 119.399 38.6966 120.187 38.9761C120.976 39.279 122.077 39.4305 123.491 39.4305Z" fill="white"/>
<path d="M136.989 35.7611C136.095 35.7611 135.371 35.0367 135.371 34.1431V19.9057C135.371 19.0121 136.095 18.2877 136.989 18.2877H138.913C139.828 18.2877 140.56 19.0462 140.553 19.9615C140.542 21.3002 140.579 22.8353 140.831 22.0619C141.248 20.7805 141.886 19.7787 142.744 19.0565C143.625 18.311 144.749 17.9382 146.117 17.9382C146.558 17.9382 146.929 17.9848 147.23 18.078C147.702 18.1797 147.957 18.6425 147.899 19.1221L147.515 22.2932C147.457 22.7746 146.976 23.0953 146.5 23.0055C146.152 22.9356 145.723 22.9007 145.213 22.9007C144.146 22.9007 143.219 23.2385 142.431 23.9141C141.666 24.5897 141.283 25.6032 141.283 26.9545V34.1431C141.283 35.0367 140.559 35.7611 139.665 35.7611H136.989Z" fill="white"/>
<path d="M153.271 16.2608C152.065 16.2608 151.184 16.0394 150.628 15.5968C150.094 15.1308 149.828 14.4086 149.828 13.4301C149.828 12.4283 150.094 11.706 150.628 11.2634C151.184 10.7974 152.065 10.5645 153.271 10.5645C154.453 10.5645 155.323 10.7974 155.879 11.2634C156.436 11.706 156.714 12.4283 156.714 13.4301C156.714 14.4086 156.436 15.1308 155.879 15.5968C155.323 16.0394 154.453 16.2608 153.271 16.2608ZM154.609 18.2877C155.502 18.2877 156.227 19.0121 156.227 19.9057V34.1431C156.227 35.0367 155.502 35.7611 154.609 35.7611H151.932C151.039 35.7611 150.315 35.0367 150.315 34.1431V19.9057C150.315 19.0121 151.039 18.2877 151.932 18.2877H154.609Z" fill="white"/>
<path d="M166.835 36.1105C164.679 36.1105 162.94 35.3184 161.618 33.7341C160.32 32.1499 159.67 29.9366 159.67 27.0943C159.67 25.1372 159.972 23.4831 160.575 22.1318C161.201 20.7573 162.059 19.7205 163.148 19.0216C164.261 18.2993 165.536 17.9382 166.974 17.9382C168.203 17.9382 169.246 18.2411 170.104 18.8468C170.985 19.4526 171.646 20.2563 172.086 21.2582C172.42 22.0163 172.249 15.6827 172.146 12.5569C172.115 11.6393 172.85 10.879 173.768 10.879H176.381C177.274 10.879 177.999 11.6034 177.999 12.497V34.1431C177.999 35.0367 177.274 35.7611 176.381 35.7611H174.431C173.499 35.7611 172.762 34.9755 172.784 34.0437C172.81 32.8822 172.782 31.6711 172.504 32.3363C172.017 33.5012 171.275 34.4214 170.278 35.0971C169.304 35.7727 168.156 36.1105 166.835 36.1105ZM168.887 31.7422C169.861 31.7422 170.637 31.3345 171.217 30.519C171.797 29.7036 172.086 28.5038 172.086 26.9195C172.086 25.4518 171.808 24.3218 171.252 23.5297C170.695 22.7143 169.919 22.3066 168.922 22.3066C167.901 22.3066 167.09 22.691 166.487 23.4598C165.907 24.2053 165.618 25.3935 165.618 27.0244C165.618 28.6552 165.907 29.8551 166.487 30.6239C167.067 31.3694 167.867 31.7422 168.887 31.7422Z" fill="white"/>
<path fill-rule="evenodd" clip-rule="evenodd" d="M9.85591 2.38931C6.76028 2.56811 4.22644 4.91744 3.81453 7.99074L0.0682056 35.9427C-0.451983 39.8239 2.56685 43.2743 6.48277 43.2743H56.8057C60.8395 43.2743 63.8904 39.6244 63.175 35.6546L57.7098 5.32812C57.1293 2.10683 54.2351 -0.173926 50.9673 0.0148117L9.85591 2.38931ZM45.7301 16.6298C47.2685 16.6298 48.5156 15.3906 48.5156 13.8621C48.5156 12.3336 47.2685 11.0945 45.7301 11.0945C44.1917 11.0945 42.9446 12.3336 42.9446 13.8621C42.9446 15.3906 44.1917 16.6298 45.7301 16.6298ZM19.2648 13.5206C20.8033 13.5206 22.0505 14.6779 22.0505 16.1055V29.2907C22.0505 30.7183 23.2976 31.8756 24.8361 31.8756H26.9253C28.4638 31.8756 29.711 30.7183 29.711 29.2907V28.9644C29.7103 28.9212 29.71 28.8779 29.71 28.8344V21.7927C29.71 20.2811 30.9571 19.0558 32.4956 19.0558C34.0341 19.0558 35.2812 20.2811 35.2812 21.7927V26.7686C35.2819 26.7921 35.2823 26.8157 35.2823 26.8394V28.9095C35.3227 30.3864 36.554 31.5714 38.0669 31.5714H40.1561C41.6946 31.5714 42.9418 30.346 42.9418 28.8344V21.7927C42.9418 20.2811 44.1889 19.0558 45.7274 19.0558C47.2659 19.0558 48.5131 20.2811 48.5131 21.7927V28.8344C48.5131 33.3692 44.7715 37.0454 40.1561 37.0454H38.0669C35.9594 37.0454 34.0341 36.2789 32.5641 35.0142C31.0778 36.2758 29.0984 37.0454 26.9253 37.0454H24.8361C20.2207 37.0454 16.4792 33.5735 16.4792 29.2907V16.1055C16.4792 14.6779 17.7264 13.5206 19.2648 13.5206Z" fill="#F7C443"/>
<path fill-rule="evenodd" clip-rule="evenodd" d="M9.85591 2.38931C6.76028 2.56811 4.22644 4.91744 3.81453 7.99074L0.0682056 35.9427C-0.451983 39.8239 2.56685 43.2743 6.48277 43.2743H56.8057C60.8395 43.2743 63.8904 39.6244 63.175 35.6546L57.7098 5.32812C57.1293 2.10683 54.2351 -0.173926 50.9673 0.0148117L9.85591 2.38931ZM45.7301 16.6298C47.2685 16.6298 48.5156 15.3906 48.5156 13.8621C48.5156 12.3336 47.2685 11.0945 45.7301 11.0945C44.1917 11.0945 42.9446 12.3336 42.9446 13.8621C42.9446 15.3906 44.1917 16.6298 45.7301 16.6298ZM19.2648 13.5206C20.8033 13.5206 22.0505 14.6779 22.0505 16.1055V29.2907C22.0505 30.7183 23.2976 31.8756 24.8361 31.8756H26.9253C28.4638 31.8756 29.711 30.7183 29.711 29.2907V28.9644C29.7103 28.9212 29.71 28.8779 29.71 28.8344V21.7927C29.71 20.2811 30.9571 19.0558 32.4956 19.0558C34.0341 19.0558 35.2812 20.2811 35.2812 21.7927V26.7686C35.2819 26.7921 35.2823 26.8157 35.2823 26.8394V28.9095C35.3227 30.3864 36.554 31.5714 38.0669 31.5714H40.1561C41.6946 31.5714 42.9418 30.346 42.9418 28.8344V21.7927C42.9418 20.2811 44.1889 19.0558 45.7274 19.0558C47.2659 19.0558 48.5131 20.2811 48.5131 21.7927V28.8344C48.5131 33.3692 44.7715 37.0454 40.1561 37.0454H38.0669C35.9594 37.0454 34.0341 36.2789 32.5641 35.0142C31.0778 36.2758 29.0984 37.0454 26.9253 37.0454H24.8361C20.2207 37.0454 16.4792 33.5735 16.4792 29.2907V16.1055C16.4792 14.6779 17.7264 13.5206 19.2648 13.5206Z" fill="#F7C443"/>
<ellipse cx="45.7339" cy="13.8633" rx="2.78549" ry="2.76763" fill="#EB5E4A"/>
<path fill-rule="evenodd" clip-rule="evenodd" d="M19.2686 13.5215C20.8071 13.5215 22.0543 14.6788 22.0543 16.1064V29.2916C22.0543 30.7192 23.3015 31.8765 24.8399 31.8765H26.9292C28.4676 31.8765 29.7148 30.7192 29.7148 29.2916V26.8403C29.7148 25.4127 30.962 24.2554 32.5005 24.2554C34.0389 24.2554 35.2861 25.4127 35.2861 26.8403V29.2916C35.2861 33.5744 31.5446 37.0464 26.9292 37.0464H24.8399C20.2245 37.0464 16.483 33.5744 16.483 29.2916V16.1064C16.483 14.6788 17.7302 13.5215 19.2686 13.5215Z" fill="#223554"/>
<path fill-rule="evenodd" clip-rule="evenodd" d="M32.4994 19.0566C34.0379 19.0566 35.2851 20.282 35.2851 21.7936V28.8353C35.2851 30.3469 36.5322 31.5723 38.0707 31.5723H40.1599C41.6984 31.5723 42.9456 30.3469 42.9456 28.8353V21.7936C42.9456 20.282 44.1928 19.0566 45.7312 19.0566C47.2697 19.0566 48.5169 20.282 48.5169 21.7936V28.8353C48.5169 33.3701 44.7753 37.0462 40.1599 37.0462H38.0707C33.4553 37.0462 29.7138 33.3701 29.7138 28.8353V21.7936C29.7138 20.282 30.961 19.0566 32.4994 19.0566Z" fill="#223554"/>
<path d="M67.8413 14.8753C68.3984 15.3135 69.2804 15.5326 70.4875 15.5326C71.6713 15.5326 72.5418 15.3135 73.0989 14.8753C73.656 14.414 73.9345 13.699 73.9345 12.7304C73.9345 11.7386 73.656 11.0237 73.0989 10.5855C72.5418 10.1242 71.6713 9.89355 70.4875 9.89355C69.2804 9.89355 68.3984 10.1242 67.8413 10.5855C67.3074 11.0237 67.0404 11.7386 67.0404 12.7304C67.0404 13.699 67.3074 14.414 67.8413 14.8753Z" fill="white"/>
</svg>
